<?xml version="1.0" standalone="no"?>
<!DOCTYPE svg PUBLIC "-//W3C//DTD SVG 20010904//EN"
 "http://www.w3.org/TR/2001/REC-SVG-20010904/DTD/svg10.dtd">
<svg version="1.0" xmlns="http://www.w3.org/2000/svg"
 width="540.000000pt" height="540.000000pt" viewBox="0 0 540.000000 540.000000"
 preserveAspectRatio="xMidYMid meet">
<metadata>
Created by potrace 1.14, written by Peter Selinger 2001-2017
</metadata>
<g transform="translate(0.000000,540.000000) scale(0.100000,-0.100000)"
fill="#000000" stroke="none">
<path d="M64 5346 l-34 -34 0 -2612 0 -2612 34 -34 34 -34 2612 0 2612 0 34
34 34 34 0 2612 0 2612 -34 34 -34 34 -2612 0 -2612 0 -34 -34z m2306 -483 c0
-10 -16 -148 -35 -308 -19 -159 -60 -506 -90 -770 -30 -264 -69 -597 -86 -740
-180 -1537 -179 -1524 -156 -1632 38 -176 152 -313 307 -368 131 -47 136 -47
1163 -45 532 1 1087 -2 1232 -6 260 -7 265 -7 265 -28 0 -34 -63 -450 -69
-458 -3 -3 -645 -7 -1426 -9 l-1420 -3 -90 23 c-284 70 -472 252 -547 531
l-21 80 -529 0 -530 0 6 38 c6 37 56 447 56 457 0 3 223 5 495 5 414 0 495 2
495 14 0 82 92 1092 106 1159 l6 27 -210 0 c-236 0 -279 8 -422 80 -331 166
-524 507 -556 983 l-7 97 382 0 c297 0 382 -3 385 -12 2 -7 9 -56 16 -108 33
-256 122 -464 220 -515 18 -9 67 -15 136 -17 l108 -3 58 469 c33 258 57 475
54 483 -5 11 -112 13 -676 11 -496 -2 -670 0 -670 8 0 21 86 128 152 190 192
178 482 300 846 353 189 28 169 27 635 29 391 2 417 1 417 -15z m1484 -10 c-3
-16 -24 -145 -48 -288 l-42 -260 -672 -5 c-445 -3 -672 -2 -672 5 -1 6 14 137
31 293 l33 282 688 0 688 0 -6 -27z m1056 -2143 l0 -1700 -110 0 -110 0 0
1700 0 1700 110 0 110 0 0 -1700z m-1220 854 l0 -616 -30 58 c-40 75 -91 143
-140 188 l-40 36 0 475 0 475 105 0 105 0 0 -616z m840 -1159 l0 -1396 -107 3
c-105 3 -108 4 -107 26 0 12 1 639 2 1392 l2 1370 105 0 105 0 0 -1395z
m-2022 1121 c1 -93 -2 -174 -7 -179 -5 -5 -52 -6 -111 -1 l-103 7 6 165 c4
120 9 167 19 174 7 4 54 7 103 6 l90 -3 3 -169z m812 -124 l0 -89 -62 13 c-35
8 -85 14 -112 14 l-49 0 7 38 c3 20 6 54 6 75 l0 37 105 0 105 0 0 -88z m-83
-88 c87 -9 204 -73 287 -157 143 -143 213 -342 236 -668 11 -156 -1 -424 -26
-567 -68 -397 -258 -664 -534 -751 -103 -33 -221 -41 -592 -41 l-347 0 -30 37
c-73 89 -131 260 -131 390 l0 73 470 0 469 0 36 31 c48 43 102 156 126 269 26
120 37 461 20 590 -21 159 -69 258 -142 296 -23 11 -99 14 -434 14 -223 0
-405 3 -405 8 0 4 12 116 27 249 l27 241 445 -4 c245 -3 469 -7 498 -10z
m-735 -607 c4 -7 8 -247 8 -534 l0 -523 -110 0 -110 0 0 533 c0 294 2 536 4
538 10 10 201 -3 208 -14z m649 -194 c25 -100 51 -308 50 -400 -2 -91 -25
-226 -51 -296 -45 -120 -45 -117 -42 360 2 302 6 442 13 431 5 -10 19 -52 30
-95z m929 -757 c0 -354 3 -664 6 -690 l7 -46 -112 0 -111 0 0 690 0 690 105 0
105 0 0 -644z m-1180 54 l0 -160 -110 0 -110 0 0 160 0 160 110 0 110 0 0
-160z m792 -603 l3 -187 -107 0 -108 0 0 93 0 93 41 39 c49 47 120 144 146
199 l18 39 2 -44 c2 -24 4 -128 5 -232z m-372 -141 l0 -44 -102 -4 c-57 -2
-107 -1 -112 4 -6 4 -5 17 2 33 9 19 20 25 44 26 18 0 58 7 88 14 83 19 80 20
80 -29z m-910 11 c86 -11 95 -15 98 -35 3 -17 -2 -22 -20 -22 -55 1 -198 45
-198 61 0 11 2 11 120 -4z m490 -37 l0 -30 -110 0 -110 0 0 30 0 30 110 0 110
0 0 -30z"/>
</g>
</svg>
